# xmcd
#
# Track frame offsets:
#	150
#	21303
#	34160
#	42804
#	58628
#	61626
#	77859
#	92218
#	93710
#	103835
#	105629
#	115433
#	127226
#	138641
#	141516
#	145241
#	162219
#	168359
#	169886
#	179257
#	181769
#	199634
#	212129
#	225626
#	232615
#	246247
#
# Disc length: 3356 seconds
#
# Revision: 0
# Processed by: cddbd v1.4PL0 Copyright (c) Steve Scherf et al.
# Submitted via: EasyCDDAExtractor 4.5.2.1
#
DISCID=760d1a1a
DTITLE=Wabi Danek - Valassky drtivy styl
DYEAR=1900
DGENRE=
TTITLE0=Tonka
TTITLE1=Shantytown
TTITLE2=Valcisko and Porubsky valcik
TTITLE3=Ranni blues
TTITLE4=Versotepani Plzen
TTITLE5=Pisen, co me ucil listopad
TTITLE6=Vikend
TTITLE7=Versotepani Klenci
TTITLE8=Motorovi trampi
TTITLE9=Versotepani Beroun
TTITLE10=Simonovi
TTITLE11=Indianska
TTITLE12=Valassky drtivy styl
TTITLE13=Versotepani Litovel
TTITLE14=Versotepani Castolovice
TTITLE15=Franta ma pera
TTITLE16=Pisen proti
TTITLE17=Versotepani Praha
TTITLE18=Tece voda, tece
TTITLE19=Versotepani Praha-Kbely
TTITLE20=Outsider waltz
TTITLE21=Zelva
TTITLE22=Kdyz jsem odchazel
TTITLE23=Indianska
TTITLE24=Vikend
TTITLE25=Pisen proti
EXTD=
EXTT0=
EXTT1=
EXTT2=
EXTT3=
EXTT4=
EXTT5=
EXTT6=
EXTT7=
EXTT8=
EXTT9=
EXTT10=
EXTT11=
EXTT12=
EXTT13=
EXTT14=
EXTT15=
EXTT16=
EXTT17=
EXTT18=
EXTT19=
EXTT20=
EXTT21=
EXTT22=
EXTT23=
EXTT24=
EXTT25=
PLAYORDER=
